<svg version="1.1" id="Layer_1" xmlns="http://www.w3.org/2000/svg" xmlns:xlink="http://www.w3.org/1999/xlink" x="0px" y="0px"
	 width="100%" viewBox="0 0 834 283" enable-background="new 0 0 834 283" xml:space="preserve">
<path fill="#000000" opacity="1.000000" stroke="none" 
	d="
M533.000000,284.000000 
	C355.372986,284.000000 178.245956,284.000000 1.059463,284.000000 
	C1.059463,189.727448 1.059463,95.454849 1.059463,1.091125 
	C278.877014,1.091125 556.754089,1.091125 834.815552,1.091125 
	C834.815552,95.333046 834.815552,189.666489 834.815552,284.000000 
	C734.454895,284.000000 633.977417,284.000000 533.000000,284.000000 
M289.960022,46.447601 
	C289.639954,46.267117 289.319885,46.086632 289.007874,45.977898 
	C289.007874,45.977898 289.077911,45.960491 288.789062,45.310898 
	C286.278168,44.582916 283.777435,43.287861 281.254272,43.242565 
	C275.644653,43.141861 270.021088,43.935444 264.408081,43.879269 
	C253.722076,43.772316 243.039658,43.094955 232.355438,43.087044 
	C222.332855,43.079624 212.311600,43.785831 202.286621,43.898678 
	C188.745850,44.051102 175.201523,44.009602 161.659698,43.914131 
	C150.031143,43.832153 138.404419,43.512840 126.775955,43.381657 
	C116.695343,43.267929 106.613045,43.202812 96.532257,43.257336 
	C92.749008,43.277802 88.967926,43.696083 84.800308,43.272865 
	C80.635155,43.171272 80.707024,39.715557 80.046570,37.033962 
	C78.537262,30.905815 77.654449,24.589186 75.706573,18.613335 
	C73.936737,13.183693 70.181877,8.279259 62.178265,8.807869 
	C53.714714,9.366856 45.188686,8.989744 36.689919,9.002205 
	C30.528206,9.011240 24.366377,8.967363 18.204735,8.987735 
	C13.950238,9.001800 10.487497,10.298926 9.040334,15.387910 
	C9.014855,15.565640 8.989377,15.743372 8.267343,16.327116 
	C7.556180,25.049997 12.065685,29.945498 20.840410,29.953566 
	C30.491280,29.962442 40.145256,30.098989 49.791630,29.890684 
	C54.108871,29.797459 56.556717,31.248405 57.335697,35.650452 
	C57.983711,39.312393 59.146103,42.880024 59.960274,46.516384 
	C65.321869,70.463036 70.635536,94.420410 75.997002,118.367088 
	C78.632446,130.138153 81.356537,141.889343 84.004921,153.657532 
	C87.352798,168.533951 90.755463,183.398941 93.961159,198.306137 
	C96.284042,209.108047 100.177681,218.786896 111.499413,222.971451 
	C115.509613,224.453613 119.902367,224.900711 125.028519,225.939667 
	C144.398071,225.906097 163.767639,225.872513 184.049377,225.967499 
	C204.619843,225.622940 225.192032,225.354248 245.759552,224.881302 
	C251.003494,224.760712 254.721680,220.843170 254.661896,216.283722 
	C254.585831,210.480820 250.954269,206.931061 244.997803,206.929352 
	C207.012238,206.918427 169.026367,206.995712 131.041534,206.829163 
	C126.371063,206.808701 121.706200,205.512527 116.852135,204.299057 
	C116.298973,203.853760 115.745804,203.408463 115.060760,202.214828 
	C114.632271,201.529922 114.173012,200.862167 113.780113,200.157425 
	C110.287743,193.893143 111.466980,190.890961 118.489571,189.928238 
	C122.742043,189.345276 127.153259,189.966293 131.493179,189.967972 
	C169.483582,189.982590 207.474487,190.086472 245.463989,189.903488 
	C254.509140,189.859909 262.261871,186.675095 265.341309,177.102936 
	C266.627502,173.105011 267.115295,168.856766 268.103882,164.755569 
	C276.334442,130.610992 284.654449,96.487808 292.784943,62.319485 
	C293.927734,57.516739 295.834503,52.419334 291.786621,47.218132 
	C291.202667,47.104397 290.618683,46.990658 290.003937,46.967663 
	C290.003937,46.967663 290.095856,46.994740 289.960022,46.447601 
M659.992493,149.923889 
	C660.698120,159.602463 667.208435,171.635818 678.203430,174.568207 
	C685.425720,176.494370 692.524414,178.024597 700.113220,175.519272 
	C705.348328,173.790985 710.327759,172.296906 713.753296,167.323288 
	C714.156372,168.931854 714.559448,170.540421 714.641479,172.844650 
	C714.691345,173.511826 714.755493,174.764297 714.789124,174.763474 
	C721.792358,174.592484 728.793518,174.333191 735.957458,173.133881 
	C735.971191,147.027390 736.000244,120.920883 735.955017,94.814491 
	C735.952637,93.454468 735.317383,92.095543 734.499512,90.153107 
	C730.063049,90.409210 725.629028,90.816093 721.189575,90.887245 
	C713.928711,91.003616 713.972412,90.911324 713.989685,98.129257 
	C714.022888,111.999077 714.045715,125.869240 713.981079,139.738831 
	C713.944885,147.511154 709.384338,154.627548 702.763062,156.497253 
	C697.439270,158.000565 691.953308,158.258087 686.920166,154.384079 
	C686.756714,154.117279 686.518555,153.981064 685.893005,153.320206 
	C681.684753,149.052444 681.650513,143.650192 681.598389,138.165298 
	C681.508850,128.753525 681.168274,119.344414 681.029053,109.932762 
	C680.936646,103.689034 681.011536,97.442841 681.011536,91.122032 
	C673.550293,91.122032 666.763611,91.122032 659.227356,91.014107 
	C659.159363,109.848701 659.083435,128.683273 659.063904,147.517944 
	C659.063354,148.045242 659.664856,148.573181 659.992493,149.923889 
M468.040161,100.960197 
	C468.040161,100.960197 468.121765,100.917580 467.828369,100.277596 
	C467.116516,99.472618 466.457581,98.612450 465.684631,97.871208 
	C457.937134,90.442162 448.403778,89.755577 438.265045,89.761871 
	C422.437744,89.771698 412.116241,97.867279 405.049988,110.892700 
	C399.540894,121.047684 399.021698,132.191238 401.201691,143.339890 
	C403.225403,153.689270 408.561005,162.238174 417.132904,168.506577 
	C423.260742,172.987686 430.123596,175.091003 437.792023,176.239471 
	C449.938965,178.058640 460.722534,175.258591 471.214539,169.869324 
	C473.645721,168.620544 474.627899,166.716492 473.429535,163.687241 
	C471.845886,159.683929 470.873169,155.438965 469.596924,151.160675 
	C467.839172,152.031036 466.293945,153.012817 464.610382,153.593613 
	C455.644897,156.686569 446.650757,159.404755 437.089813,155.901062 
	C429.272766,153.036438 424.360992,147.871521 423.213745,140.324295 
	C425.788147,139.811722 428.014709,139.020203 430.253632,138.983673 
	C439.304901,138.836029 448.360046,138.897125 457.413605,138.928421 
	C463.412415,138.949158 469.413788,139.156647 475.406586,138.999252 
	C476.293518,138.975952 477.843201,137.433502 477.887848,136.534378 
	C478.135803,131.540939 478.627258,126.435028 477.877319,121.545219 
	C476.691559,113.813789 474.585602,106.224518 468.040161,100.960197 
M316.998566,138.916809 
	C317.053253,149.604492 317.107971,160.292175 317.012695,171.841965 
	C317.824829,172.873413 318.599213,174.760834 319.455139,174.798553 
	C325.381866,175.059723 331.327515,175.010345 337.261597,174.853363 
	C338.125763,174.830505 338.960724,173.702789 339.975922,172.142639 
	C339.929993,155.779541 339.884033,139.416443 339.984528,122.292732 
	C342.244659,113.187912 346.686157,109.600037 354.456116,109.058823 
	C365.437378,108.293930 370.458191,114.222870 370.869385,125.688110 
	C371.392914,140.285126 370.997406,154.915085 370.998047,169.530838 
	C370.998108,171.270493 370.998047,173.010162 370.998047,175.383331 
	C378.803619,174.914902 385.791748,174.495514 392.955750,173.135666 
	C392.970856,156.428436 393.006775,139.721146 392.962006,123.014076 
	C392.958374,121.660149 392.401642,120.307701 392.015167,118.076538 
	C392.399536,111.625145 390.756439,105.635475 386.943970,100.522087 
	C379.537109,90.587822 365.414246,86.442116 352.865448,90.654831 
	C348.332703,92.176498 344.196838,94.880356 339.999939,96.215927 
	C339.673401,94.420883 339.346832,92.625839 338.569305,90.222916 
	C331.848846,90.585709 325.128387,90.948494 317.143555,91.379539 
	C317.143555,106.926483 317.143555,122.455696 316.998566,138.916809 
M779.073975,130.946350 
	C779.073975,130.946350 779.146606,130.928497 779.096252,130.144821 
	C774.748169,117.868622 770.451660,105.573479 765.959961,93.350044 
	C765.574585,92.301323 763.913147,91.073769 762.811584,91.041229 
	C755.750671,90.832619 748.680542,90.934769 741.288452,90.934769 
	C741.978760,93.002014 742.428772,94.563965 743.015442,96.072815 
	C747.665955,108.034393 752.390015,119.967529 756.994080,131.946854 
	C760.070984,139.952896 762.907898,148.051498 766.007446,156.048477 
	C767.897705,160.925430 770.281128,165.617615 772.029846,170.539597 
	C772.660339,172.314438 772.439819,174.600555 771.996460,176.511536 
	C770.168274,184.391617 764.432373,187.822647 756.094666,188.969101 
	C754.169678,188.969101 752.244690,188.969101 749.543945,188.969101 
	C750.041382,195.737457 750.493774,201.893417 751.376343,208.784546 
	C754.784790,208.502914 758.192505,208.213089 761.601746,207.941086 
	C775.344055,206.844666 784.969177,199.314377 790.109253,187.186172 
	C798.940308,166.349014 806.769836,145.085510 814.919617,123.962334 
	C818.999756,113.387177 822.858826,102.726738 827.239075,90.974907 
	C819.357788,90.974907 812.298584,90.883484 805.249207,91.104935 
	C804.475830,91.129234 803.482910,92.845436 803.061951,93.955261 
	C800.811340,99.888397 798.657776,105.859993 796.569153,111.852592 
	C793.313721,121.192871 790.137390,130.560684 786.321411,140.168365 
	C785.591980,141.387497 784.862610,142.606644 784.044495,143.074677 
	C782.393188,139.007584 780.741882,134.940491 779.073975,130.946350 
M519.378723,114.067528 
	C518.955078,114.668839 518.531433,115.270149 518.048401,115.151230 
	C513.817078,107.992523 509.613861,100.816872 505.323395,93.693787 
	C504.696960,92.653847 503.674042,91.101364 502.801056,91.078720 
	C494.935577,90.874748 487.062622,90.959473 478.286865,90.959473 
	C486.599854,103.405457 494.229584,114.942062 501.997284,126.385002 
	C504.175690,129.594070 504.696869,132.227264 502.109955,135.697998 
	C496.941681,142.632111 492.271759,149.938171 487.408905,157.099365 
	C483.527893,162.814713 479.665924,168.543015 475.335510,174.945679 
	C483.421082,174.945679 490.412231,175.161560 497.371674,174.787506 
	C499.024384,174.698685 501.074615,172.962799 502.081238,171.422134 
	C507.128845,163.696915 511.890503,155.784866 516.976807,147.576752 
	C522.184326,155.761780 527.081482,163.607086 532.170044,171.326248 
	C533.133362,172.787567 534.813904,174.715744 536.236145,174.778305 
	C543.953369,175.117844 551.693481,174.939499 559.645203,174.939499 
	C549.552124,160.260056 539.784973,146.054504 530.039062,131.880005 
	C539.246521,118.343712 548.377319,104.920067 557.897522,90.923988 
	C549.925049,90.923988 542.638855,90.875534 535.354736,90.979713 
	C534.340332,90.994232 532.853088,91.471245 532.403259,92.223572 
	C528.139526,99.354881 524.053040,106.592133 519.378723,114.067528 
M585.059937,56.953362 
	C578.466309,56.953362 571.872681,56.953362 565.361206,56.953362 
	C565.361206,96.606918 565.361206,135.643250 565.361206,174.747925 
	C572.345215,174.747925 578.960449,174.747925 585.840820,174.747925 
	C585.952209,172.549438 586.054260,170.534927 586.171631,168.218628 
	C596.187317,176.018875 606.927979,178.588638 618.739929,175.861023 
	C626.815247,173.996231 634.483276,170.483398 639.802307,164.228897 
	C650.041931,152.188431 652.945374,137.972824 650.080078,122.364182 
	C647.720947,109.512787 637.741150,93.263962 621.825928,90.910034 
	C616.653870,90.145058 611.357666,90.051239 606.113831,89.982399 
	C599.217834,89.891876 593.565308,92.843971 588.204285,97.527412 
	C587.801575,95.642319 587.072205,93.760956 587.050598,91.871506 
	C586.935059,81.754913 587.036865,71.635956 586.950745,61.518772 
	C586.938171,60.048817 586.318665,58.584026 585.059937,56.953362 
M140.111160,250.468613 
	C138.893646,240.170380 130.570328,233.921646 117.795120,233.950745 
	C108.567177,233.971771 102.562340,238.698227 98.922272,247.052750 
	C95.364403,255.218643 97.361000,262.553345 102.588524,268.838898 
	C108.768349,276.269470 120.841988,278.291809 129.473495,273.640442 
	C136.857773,269.661163 142.895950,261.338501 140.111160,250.468613 
M219.588959,274.072784 
	C232.715927,281.227386 250.382126,268.101959 249.276581,253.470901 
	C248.101151,237.914734 232.309265,229.533417 218.774857,235.619308 
	C210.494385,239.342728 206.137634,246.463165 206.241791,255.104156 
	C206.342697,263.475464 210.241547,270.568298 219.588959,274.072784 
z"/>
<path fill="#FD851C" opacity="1.000000" stroke="none" 
	d="
M8.963898,15.921104 
	C8.989377,15.743372 9.014855,15.565640 9.446507,15.071600 
	C13.022444,13.503287 16.164604,11.259545 19.366734,11.170420 
	C33.468433,10.777923 47.587856,10.943303 61.699978,11.037790 
	C68.700150,11.084660 72.056534,13.690618 73.847206,20.507729 
	C75.406029,26.442127 76.409798,32.527580 78.100899,38.419399 
	C78.782745,40.794945 80.641235,42.832760 82.322601,45.233578 
	C84.323639,45.619114 85.966263,45.948914 87.608994,45.949455 
	C154.765289,45.971642 221.921600,45.964188 289.077911,45.960491 
	C289.077911,45.960491 289.007874,45.977898 289.155060,46.153893 
	C289.566772,46.551506 289.831329,46.773121 290.095856,46.994736 
	C290.095856,46.994740 290.003937,46.967663 290.122375,47.232136 
	C290.503632,48.321815 290.766479,49.147022 291.106079,50.359589 
	C291.241547,53.033447 291.751251,55.417431 291.281677,57.589737 
	C289.139191,67.501472 286.751190,77.360794 284.397552,87.226105 
	C277.602295,115.709015 270.698151,144.166290 264.016144,172.675674 
	C261.761780,182.294250 256.418121,186.985016 246.566879,186.988434 
	C205.270782,187.002762 163.974686,186.995667 122.678589,187.002060 
	C120.847687,187.002335 119.009201,186.962326 117.187477,187.107300 
	C113.358582,187.411987 109.779465,189.182571 109.623940,193.034927 
	C109.467201,196.917816 109.958618,201.576782 115.192642,202.963165 
	C115.745804,203.408463 116.298973,203.853760 117.041885,204.908127 
	C119.153000,209.106705 122.538353,209.009277 125.918068,209.008469 
	C165.054398,208.999054 204.190750,208.984634 243.327057,209.019638 
	C249.638046,209.025284 252.009491,211.079041 251.975143,216.095230 
	C251.943222,220.757782 249.683853,222.952759 244.141998,222.960342 
	C204.006577,223.015198 163.869431,223.168533 123.736687,222.831406 
	C114.633545,222.754944 105.617371,220.607605 101.116173,211.029465 
	C99.430695,207.442932 97.866402,203.696045 96.986008,199.852951 
	C93.646713,185.276154 90.734558,170.601837 87.430115,156.016678 
	C82.839478,135.754486 78.000092,115.548813 73.340462,95.302078 
	C68.866325,75.861290 64.417557,56.414101 60.097073,36.938793 
	C58.353085,29.077457 54.846546,26.488375 46.670025,27.130091 
	C40.382454,27.623558 34.060497,27.980654 27.758709,27.916800 
	C19.360807,27.831705 10.666334,27.758245 9.262346,16.314909 
	C9.245005,16.173563 9.066941,16.051935 8.963898,15.921104 
M162.156006,96.340385 
	C164.089920,99.958244 166.023819,103.576111 168.389694,108.002068 
	C165.661865,108.002068 163.879379,108.001595 162.096893,108.002144 
	C148.935150,108.006203 135.772247,107.908798 122.612175,108.059547 
	C116.459419,108.130028 112.622581,111.468559 112.051682,116.599075 
	C111.208511,124.176308 113.129616,127.594978 119.818871,129.343979 
	C123.322319,130.260025 127.005066,130.844040 130.619720,130.914185 
	C141.111893,131.117752 151.610641,130.964310 162.106583,131.007034 
	C163.825256,131.014038 165.542770,131.305313 167.690384,131.505188 
	C167.083374,133.116989 166.855789,134.078293 166.389038,134.904510 
	C162.468002,141.845291 158.465439,148.740173 154.565628,155.692734 
	C152.230164,159.856384 152.800079,165.833847 155.615845,168.160126 
	C159.506500,171.374435 164.644226,171.462875 169.038330,168.461670 
	C174.801666,164.525253 180.547394,160.560059 186.385422,156.736588 
	C200.305679,147.619919 214.337860,138.672958 228.203308,129.474228 
	C237.202103,123.504166 236.673157,114.271667 227.366577,108.909279 
	C222.472107,106.089111 217.679550,103.073921 212.975861,99.944084 
	C197.205948,89.450768 181.469193,78.906929 165.783081,68.288879 
	C161.694000,65.520943 157.863113,65.812546 154.388947,68.939766 
	C150.858688,72.117493 151.348175,76.088547 153.322464,79.906288 
	C156.065964,85.211426 158.983994,90.426315 162.156006,96.340385 
z"/>
<path fill="#FD851C" opacity="1.000000" stroke="none" 
	d="
M585.979980,57.116844 
	C586.318665,58.584026 586.938171,60.048817 586.950745,61.518772 
	C587.036865,71.635956 586.935059,81.754913 587.050598,91.871506 
	C587.072205,93.760956 587.801575,95.642319 588.574951,97.970108 
	C588.956787,98.603699 588.968018,98.794601 588.923950,99.020401 
	C588.868713,99.055298 589.015808,99.022514 589.354004,98.940948 
	C590.278931,98.551117 590.910767,98.306168 591.445923,97.925331 
	C604.893372,88.354851 625.488953,89.851891 636.956970,101.512596 
	C648.379333,113.126770 650.738098,127.307320 647.545471,142.686981 
	C641.370300,172.434250 610.500305,183.692108 586.376831,165.116760 
	C586.029114,164.849014 585.472717,164.852264 584.770447,164.663742 
	C584.370361,165.409088 583.716980,166.087723 583.665710,166.809143 
	C583.334473,171.468842 580.523254,172.525452 576.479675,172.026321 
	C575.494507,171.904724 574.466064,171.889877 573.484619,172.024094 
	C568.501038,172.705673 566.850281,170.724243 566.883911,165.607376 
	C567.089783,134.276062 566.983887,102.942696 566.985291,71.610016 
	C566.985779,60.554535 566.990601,60.562584 577.758057,59.934227 
	C578.917542,59.866566 580.252686,59.197380 581.178589,59.586689 
	C582.567200,60.170528 584.425964,61.256145 584.725708,62.465328 
	C585.311401,64.827736 584.983643,67.423187 584.987000,69.922218 
	C584.999146,78.953545 584.991760,87.984901 584.991760,97.016243 
	C585.321167,97.013206 585.650574,97.010162 585.979980,97.007118 
	C585.979980,83.710365 585.979980,70.413605 585.979980,57.116844 
M618.266174,109.087372 
	C616.285645,108.260597 614.364868,107.223061 612.314697,106.642029 
	C600.950195,103.421242 582.770325,110.909096 584.903687,127.959412 
	C585.478394,132.552521 585.243591,137.293976 584.937073,141.938065 
	C584.577576,147.384598 587.089539,151.204102 591.064636,154.333832 
	C598.203003,159.954132 610.603699,160.480667 618.426819,155.953049 
	C636.090271,145.730286 633.249573,118.080566 618.266174,109.087372 
z"/>
<path fill="#FD851C" opacity="1.000000" stroke="none" 
	d="
M784.133179,143.825775 
	C784.862610,142.606644 785.591980,141.387497 786.583801,140.357819 
	C786.688477,141.606186 786.530701,142.665115 786.372925,143.724060 
	C787.901062,142.356003 788.752380,140.794754 789.344116,139.140701 
	C794.272949,125.363014 799.099426,111.548294 804.119019,97.803993 
	C804.740723,96.101830 806.199097,93.560394 807.465027,93.438675 
	C812.642212,92.940903 817.895203,93.231026 823.734314,93.231026 
	C823.093323,95.482742 822.799683,96.912880 822.285950,98.259010 
	C813.981262,120.018211 805.816528,141.833191 797.246826,163.487839 
	C793.344482,173.348724 789.470093,183.391647 784.052551,192.435135 
	C778.321472,202.001846 768.785156,206.437241 757.323730,206.013138 
	C753.605652,205.875565 751.767639,204.278122 752.012329,200.459015 
	C752.118713,198.799683 751.626160,196.961182 752.193726,195.512909 
	C752.731262,194.141251 754.098267,192.738037 755.453308,192.110489 
	C759.429199,190.269226 763.939026,189.373672 767.583008,187.069229 
	C773.707520,183.196075 776.420166,174.785385 774.233093,168.642090 
	C772.279419,163.154419 770.240234,157.693573 768.087097,152.281235 
	C761.020264,134.517227 753.877686,116.783348 746.779968,99.031601 
	C745.088562,94.801285 746.144104,93.156227 750.682800,93.023239 
	C753.678162,92.935478 756.686890,93.149162 759.673889,92.968445 
	C763.117371,92.760109 764.678955,94.423149 765.757935,97.537270 
	C769.242432,107.593765 772.942139,117.576820 776.674438,127.544930 
	C777.146179,128.804718 778.305725,129.806931 779.146606,130.928497 
	C779.146606,130.928497 779.073975,130.946350 779.055542,131.337189 
	C779.710449,134.720016 780.168640,137.785782 781.157471,140.669632 
	C781.584595,141.915329 783.107849,142.785187 784.133179,143.825775 
z"/>
<path fill="#FD851B" opacity="1.000000" stroke="none" 
	d="
M714.962524,172.148987 
	C714.559448,170.540421 714.156372,168.931854 713.157959,167.023102 
	C712.085876,166.754272 711.417542,166.591339 711.160095,166.845184 
	C702.665894,175.220795 692.318970,175.137100 681.746460,172.957962 
	C673.548889,171.268326 667.323608,166.320145 664.792236,158.328079 
	C662.762085,151.918274 661.527588,145.072678 661.177490,138.355972 
	C660.597473,127.227875 660.947083,116.047455 661.024902,104.889915 
	C661.120178,91.218666 659.214294,93.344101 672.962158,92.905411 
	C677.965820,92.745750 679.166748,94.710976 679.082764,99.328476 
	C678.846558,112.314133 678.844666,125.310402 679.112793,138.295013 
	C679.193665,142.214340 680.051025,146.254379 681.364746,149.950562 
	C681.969055,151.650909 684.531311,152.655411 686.205750,153.975433 
	C686.518555,153.981064 686.756714,154.117279 687.039429,154.955627 
	C687.744751,156.301773 688.171753,157.329926 688.941040,157.812286 
	C698.006958,163.497330 713.878723,156.577423 714.738831,145.861130 
	C715.853088,131.978027 715.742126,117.989243 715.947205,104.042847 
	C716.110168,92.958862 715.974792,93.180168 727.333618,92.895630 
	C732.330139,92.770477 734.502869,93.971123 733.115662,99.257416 
	C732.706421,100.816544 733.019470,102.567947 733.019226,104.231239 
	C733.016663,124.857574 733.055847,145.484100 732.950378,166.109924 
	C732.941101,167.923203 732.564697,170.488983 731.366394,171.400177 
	C727.786133,174.122589 717.966064,171.369446 715.371704,166.807480 
	C715.204895,168.985687 715.083740,170.567337 714.962524,172.148987 
z"/>
<path fill="#FD851C" opacity="1.000000" stroke="none" 
	d="
M518.107788,115.871460 
	C518.531433,115.270149 518.955078,114.668839 519.870667,114.091652 
	C523.547974,109.638527 526.701233,105.137962 529.931213,100.693108 
	C531.756775,98.180832 533.376526,94.090118 535.669983,93.634377 
	C540.986938,92.577843 546.656860,93.298225 552.818604,93.298225 
	C551.945862,95.083687 551.621338,96.015656 551.085205,96.803734 
	C544.161926,106.980888 537.238098,117.157944 530.243408,127.286041 
	C528.318115,130.073761 527.094177,132.681259 529.454895,135.907700 
	C535.927612,144.753891 542.339844,153.645844 548.651672,162.607269 
	C550.485352,165.210709 551.900146,168.109222 554.166626,172.006958 
	C548.844238,172.006958 544.895081,171.811523 540.974670,172.063187 
	C537.229736,172.303604 534.730347,171.038284 532.762512,167.763977 
	C528.736206,161.064606 524.359375,154.576859 520.197021,147.957901 
	C517.853943,144.231918 516.085205,144.198425 513.820251,147.951279 
	C510.810089,152.938828 507.155640,157.645966 504.889130,162.948517 
	C501.476471,170.932449 495.771606,173.332428 487.807709,171.971863 
	C485.972839,171.658386 484.203369,170.962128 482.403809,170.442017 
	C483.049683,168.794586 483.422729,166.964111 484.385345,165.529190 
	C491.052216,155.591522 497.887146,145.766693 504.566925,135.837555 
	C506.854187,132.437637 507.480225,129.145462 504.419678,125.431534 
	C500.843658,121.092171 497.886658,116.236076 494.740509,111.550835 
	C490.897430,105.827766 487.136963,100.049240 482.562408,93.114899 
	C489.521545,93.114899 495.101501,92.963387 500.660095,93.240517 
	C501.795410,93.297112 503.182220,94.761696 503.885834,95.921387 
	C507.154755,101.309288 510.078186,106.910973 513.455139,112.226585 
	C514.450989,113.794174 516.526855,114.675583 518.107788,115.871460 
z"/>
<path fill="#F8750B" opacity="1.000000" stroke="none" 
	d="
M8.615620,16.124111 
	C9.066941,16.051935 9.245005,16.173563 9.262346,16.314909 
	C10.666334,27.758245 19.360807,27.831705 27.758709,27.916800 
	C34.060497,27.980654 40.382454,27.623558 46.670025,27.130091 
	C54.846546,26.488375 58.353085,29.077457 60.097073,36.938793 
	C64.417557,56.414101 68.866325,75.861290 73.340462,95.302078 
	C78.000092,115.548813 82.839478,135.754486 87.430115,156.016678 
	C90.734558,170.601837 93.646713,185.276154 96.986008,199.852951 
	C97.866402,203.696045 99.430695,207.442932 101.116173,211.029465 
	C105.617371,220.607605 114.633545,222.754944 123.736687,222.831406 
	C163.869431,223.168533 204.006577,223.015198 244.141998,222.960342 
	C249.683853,222.952759 251.943222,220.757782 251.975143,216.095230 
	C252.009491,211.079041 249.638046,209.025284 243.327057,209.019638 
	C204.190750,208.984634 165.054398,208.999054 125.918068,209.008469 
	C122.538353,209.009277 119.153000,209.106705 117.135185,205.162369 
	C121.706200,205.512527 126.371063,206.808701 131.041534,206.829163 
	C169.026367,206.995712 207.012238,206.918427 244.997803,206.929352 
	C250.954269,206.931061 254.585831,210.480820 254.661896,216.283722 
	C254.721680,220.843170 251.003494,224.760712 245.759552,224.881302 
	C225.192032,225.354248 204.619843,225.622940 183.217194,225.705322 
	C163.579346,225.334305 144.773697,225.218719 125.967880,225.146698 
	C125.352943,225.144333 124.736313,225.585785 124.120476,225.820343 
	C119.902367,224.900711 115.509613,224.453613 111.499413,222.971451 
	C100.177681,218.786896 96.284042,209.108047 93.961159,198.306137 
	C90.755463,183.398941 87.352798,168.533951 84.004921,153.657532 
	C81.356537,141.889343 78.632446,130.138153 75.997002,118.367088 
	C70.635536,94.420410 65.321869,70.463036 59.960274,46.516384 
	C59.146103,42.880024 57.983711,39.312393 57.335697,35.650452 
	C56.556717,31.248405 54.108871,29.797459 49.791630,29.890684 
	C40.145256,30.098989 30.491280,29.962442 20.840410,29.953566 
	C12.065685,29.945498 7.556180,25.049997 8.615620,16.124111 
z"/>
<path fill="#F8740A" opacity="1.000000" stroke="none" 
	d="
M518.078125,115.511345 
	C516.526855,114.675583 514.450989,113.794174 513.455139,112.226585 
	C510.078186,106.910973 507.154755,101.309288 503.885834,95.921387 
	C503.182220,94.761696 501.795410,93.297112 500.660095,93.240517 
	C495.101501,92.963387 489.521545,93.114899 482.562408,93.114899 
	C487.136963,100.049240 490.897430,105.827766 494.740509,111.550835 
	C497.886658,116.236076 500.843658,121.092171 504.419678,125.431534 
	C507.480225,129.145462 506.854187,132.437637 504.566925,135.837555 
	C497.887146,145.766693 491.052216,155.591522 484.385345,165.529190 
	C483.422729,166.964111 483.049683,168.794586 482.403809,170.442017 
	C484.203369,170.962128 485.972839,171.658386 487.807709,171.971863 
	C495.771606,173.332428 501.476471,170.932449 504.889130,162.948517 
	C507.155640,157.645966 510.810089,152.938828 513.820251,147.951279 
	C516.085205,144.198425 517.853943,144.231918 520.197021,147.957901 
	C524.359375,154.576859 528.736206,161.064606 532.762512,167.763977 
	C534.730347,171.038284 537.229736,172.303604 540.974670,172.063187 
	C544.895081,171.811523 548.844238,172.006958 554.166626,172.006958 
	C551.900146,168.109222 550.485352,165.210709 548.651672,162.607269 
	C542.339844,153.645844 535.927612,144.753891 529.454895,135.907700 
	C527.094177,132.681259 528.318115,130.073761 530.243408,127.286041 
	C537.238098,117.157944 544.161926,106.980888 551.085205,96.803734 
	C551.621338,96.015656 551.945862,95.083687 552.818604,93.298225 
	C546.656860,93.298225 540.986938,92.577843 535.669983,93.634377 
	C533.376526,94.090118 531.756775,98.180832 529.931213,100.693108 
	C526.701233,105.137962 523.547974,109.638527 520.139038,113.957336 
	C524.053040,106.592133 528.139526,99.354881 532.403259,92.223572 
	C532.853088,91.471245 534.340332,90.994232 535.354736,90.979713 
	C542.638855,90.875534 549.925049,90.923988 557.897522,90.923988 
	C548.377319,104.920067 539.246521,118.343712 530.039062,131.880005 
	C539.784973,146.054504 549.552124,160.260056 559.645203,174.939499 
	C551.693481,174.939499 543.953369,175.117844 536.236145,174.778305 
	C534.813904,174.715744 533.133362,172.787567 532.170044,171.326248 
	C527.081482,163.607086 522.184326,155.761780 516.976807,147.576752 
	C511.890503,155.784866 507.128845,163.696915 502.081238,171.422134 
	C501.074615,172.962799 499.024384,174.698685 497.371674,174.787506 
	C490.412231,175.161560 483.421082,174.945679 475.335510,174.945679 
	C479.665924,168.543015 483.527893,162.814713 487.408905,157.099365 
	C492.271759,149.938171 496.941681,142.632111 502.109955,135.697998 
	C504.696869,132.227264 504.175690,129.594070 501.997284,126.385002 
	C494.229584,114.942062 486.599854,103.405457 478.286865,90.959473 
	C487.062622,90.959473 494.935577,90.874748 502.801056,91.078720 
	C503.674042,91.101364 504.696960,92.653847 505.323395,93.693787 
	C509.613861,100.816872 513.817078,107.992523 518.078125,115.511345 
z"/>
<path fill="#F9730A" opacity="1.000000" stroke="none" 
	d="
M779.121460,130.536652 
	C778.305725,129.806931 777.146179,128.804718 776.674438,127.544930 
	C772.942139,117.576820 769.242432,107.593765 765.757935,97.537270 
	C764.678955,94.423149 763.117371,92.760109 759.673889,92.968445 
	C756.686890,93.149162 753.678162,92.935478 750.682800,93.023239 
	C746.144104,93.156227 745.088562,94.801285 746.779968,99.031601 
	C753.877686,116.783348 761.020264,134.517227 768.087097,152.281235 
	C770.240234,157.693573 772.279419,163.154419 774.233093,168.642090 
	C776.420166,174.785385 773.707520,183.196075 767.583008,187.069229 
	C763.939026,189.373672 759.429199,190.269226 755.453308,192.110489 
	C754.098267,192.738037 752.731262,194.141251 752.193726,195.512909 
	C751.626160,196.961182 752.118713,198.799683 752.012329,200.459015 
	C751.767639,204.278122 753.605652,205.875565 757.323730,206.013138 
	C768.785156,206.437241 778.321472,202.001846 784.052551,192.435135 
	C789.470093,183.391647 793.344482,173.348724 797.246826,163.487839 
	C805.816528,141.833191 813.981262,120.018211 822.285950,98.259010 
	C822.799683,96.912880 823.093323,95.482742 823.734314,93.231026 
	C817.895203,93.231026 812.642212,92.940903 807.465027,93.438675 
	C806.199097,93.560394 804.740723,96.101830 804.119019,97.803993 
	C799.099426,111.548294 794.272949,125.363014 789.344116,139.140701 
	C788.752380,140.794754 787.901062,142.356003 786.372925,143.724060 
	C786.530701,142.665115 786.688477,141.606186 786.886841,140.232056 
	C790.137390,130.560684 793.313721,121.192871 796.569153,111.852592 
	C798.657776,105.859993 800.811340,99.888397 803.061951,93.955261 
	C803.482910,92.845436 804.475830,91.129234 805.249207,91.104935 
	C812.298584,90.883484 819.357788,90.974907 827.239075,90.974907 
	C822.858826,102.726738 818.999756,113.387177 814.919617,123.962334 
	C806.769836,145.085510 798.940308,166.349014 790.109253,187.186172 
	C784.969177,199.314377 775.344055,206.844666 761.601746,207.941086 
	C758.192505,208.213089 754.784790,208.502914 751.170044,207.947266 
	C750.969849,203.849426 751.280151,200.553970 750.911011,197.336456 
	C750.355957,192.499527 751.722473,189.471527 756.985840,189.123764 
	C764.432373,187.822647 770.168274,184.391617 771.996460,176.511536 
	C772.439819,174.600555 772.660339,172.314438 772.029846,170.539597 
	C770.281128,165.617615 767.897705,160.925430 766.007446,156.048477 
	C762.907898,148.051498 760.070984,139.952896 756.994080,131.946854 
	C752.390015,119.967529 747.665955,108.034393 743.015442,96.072815 
	C742.428772,94.563965 741.978760,93.002014 741.288452,90.934769 
	C748.680542,90.934769 755.750671,90.832619 762.811584,91.041229 
	C763.913147,91.073769 765.574585,92.301323 765.959961,93.350044 
	C770.451660,105.573479 774.748169,117.868622 779.121460,130.536652 
z"/>
<path fill="#FA7409" opacity="1.000000" stroke="none" 
	d="
M339.879852,97.044739 
	C344.196838,94.880356 348.332703,92.176498 352.865448,90.654831 
	C365.414246,86.442116 379.537109,90.587822 386.943970,100.522087 
	C390.756439,105.635475 392.399536,111.625145 392.035309,118.984238 
	C392.045746,136.164108 392.012634,152.436325 392.059509,168.708344 
	C392.064667,170.498276 392.528687,172.286911 392.779877,174.076141 
	C385.791748,174.495514 378.803619,174.914902 370.998047,175.383331 
	C370.998047,173.010162 370.998108,171.270493 370.998047,169.530838 
	C370.997406,154.915085 371.392914,140.285126 370.869385,125.688110 
	C370.458191,114.222870 365.437378,108.293930 354.456116,109.058823 
	C346.686157,109.600037 342.244659,113.187912 339.729370,123.036232 
	C339.325958,138.925125 339.157928,154.070404 339.064880,169.216141 
	C339.056946,170.504608 339.549286,171.796173 339.809204,173.086304 
	C338.960724,173.702789 338.125763,174.830505 337.261597,174.853363 
	C331.327515,175.010345 325.381866,175.059723 319.455139,174.798553 
	C318.599213,174.760834 317.824829,172.873413 317.287598,171.051254 
	C317.709412,164.532425 318.017426,158.802567 317.954895,153.076736 
	C317.899963,148.043777 317.430145,143.015335 317.143555,137.984909 
	C317.143555,122.455696 317.143555,106.926483 317.143555,91.379539 
	C325.128387,90.948494 331.848846,90.585709 338.790039,90.934875 
	C339.300446,93.446136 339.590149,95.245438 339.879852,97.044739 
M383.509949,100.034836 
	C378.460388,94.311493 372.216400,91.847099 364.498932,91.852409 
	C356.770569,91.857727 349.611206,92.695168 343.469513,97.932755 
	C341.203796,99.864952 339.180023,100.130692 337.866302,96.401077 
	C337.351990,94.941048 335.150391,93.578514 333.468079,93.150230 
	C331.276031,92.592178 328.810883,93.225769 326.508118,92.959076 
	C321.535400,92.383171 319.816376,94.237473 319.881744,99.378349 
	C320.138153,119.540955 319.905151,139.709198 320.008484,159.874557 
	C320.079590,173.743042 318.003754,171.721848 332.243408,172.074539 
	C336.549805,172.181198 338.135284,170.813019 338.067322,166.375061 
	C337.850372,152.212296 338.439819,138.025330 337.849548,123.883942 
	C337.391266,112.903999 347.038971,106.861778 355.792969,106.312637 
	C365.697662,105.691307 372.945679,113.225197 372.987701,123.578789 
	C373.038483,136.078125 372.948334,148.578110 373.019501,161.077240 
	C373.088654,173.226486 371.458099,171.757202 383.949310,172.102112 
	C388.909210,172.239059 390.174408,170.330566 390.104126,165.677292 
	C389.872559,150.347977 389.884430,135.011642 390.061707,119.680977 
	C390.144196,112.548767 388.330963,106.208977 383.509949,100.034836 
z"/>
<path fill="#F8740A" opacity="1.000000" stroke="none" 
	d="
M468.082672,100.878548 
	C474.585602,106.224518 476.691559,113.813789 477.877319,121.545219 
	C478.627258,126.435028 478.135803,131.540939 477.887848,136.534378 
	C477.843201,137.433502 476.293518,138.975952 475.406586,138.999252 
	C469.413788,139.156647 463.412415,138.949158 457.413605,138.928421 
	C448.360046,138.897125 439.304901,138.836029 430.253632,138.983673 
	C428.014709,139.020203 425.788147,139.811722 423.213745,140.324295 
	C424.360992,147.871521 429.272766,153.036438 437.089813,155.901062 
	C446.650757,159.404755 455.644897,156.686569 464.610382,153.593613 
	C466.293945,153.012817 467.839172,152.031036 469.596924,151.160675 
	C470.873169,155.438965 471.845886,159.683929 473.429535,163.687241 
	C474.627899,166.716492 473.645721,168.620544 471.214539,169.869324 
	C460.722534,175.258591 449.938965,178.058640 437.792023,176.239471 
	C430.123596,175.091003 423.260742,172.987686 417.132904,168.506577 
	C408.561005,162.238174 403.225403,153.689270 401.201691,143.339890 
	C399.021698,132.191238 399.540894,121.047684 405.049988,110.892700 
	C412.116241,97.867279 422.437744,89.771698 438.265045,89.761871 
	C448.403778,89.755577 457.937134,90.442162 465.684631,97.871208 
	C466.457581,98.612450 467.116516,99.472618 467.606354,100.595261 
	C466.596008,100.678650 465.574860,100.682747 465.054260,100.174339 
	C457.219086,92.522415 447.561432,91.535362 437.252106,91.896347 
	C426.658539,92.267281 418.049530,96.667908 411.754272,104.641037 
	C400.879456,118.414299 400.396973,134.065826 406.102417,150.004089 
	C409.933472,160.706177 417.288269,168.190948 428.429474,171.825699 
	C438.789703,175.205673 449.381348,175.139633 459.449707,172.311905 
	C471.531860,168.918625 473.652649,167.740646 468.982910,158.234436 
	C467.891510,156.012695 466.950928,155.393723 464.419891,156.138931 
	C459.495361,157.588867 454.446594,158.691483 449.388245,159.596786 
	C438.696136,161.510361 427.144745,155.478973 422.388580,145.726089 
	C419.390411,139.578125 420.905853,137.026276 427.654907,137.012466 
	C441.817596,136.983475 455.981384,136.909439 470.142548,137.059326 
	C474.411224,137.104523 476.071167,135.548676 476.087311,131.215775 
	C476.122070,121.875145 474.910126,112.972176 469.460419,105.037460 
	C468.666290,103.881172 468.525696,102.276009 468.082672,100.878548 
z"/>
<path fill="#F97409" opacity="1.000000" stroke="none" 
	d="
M585.519958,57.035103 
	C585.979980,70.413605 585.979980,83.710365 585.979980,97.007118 
	C585.650574,97.010162 585.321167,97.013206 584.991760,97.016243 
	C584.991760,87.984901 584.999146,78.953545 584.987000,69.922218 
	C584.983643,67.423187 585.311401,64.827736 584.725708,62.465328 
	C584.425964,61.256145 582.567200,60.170528 581.178589,59.586689 
	C580.252686,59.197380 578.917542,59.866566 577.758057,59.934227 
	C566.990601,60.562584 566.985779,60.554535 566.985291,71.610016 
	C566.983887,102.942696 567.089783,134.276062 566.883911,165.607376 
	C566.850281,170.724243 568.501038,172.705673 573.484619,172.024094 
	C574.466064,171.889877 575.494507,171.904724 576.479675,172.026321 
	C580.523254,172.525452 583.334473,171.468842 583.665710,166.809143 
	C583.716980,166.087723 584.370361,165.409088 584.770447,164.663742 
	C585.472717,164.852264 586.029114,164.849014 586.376831,165.116760 
	C610.500305,183.692108 641.370300,172.434250 647.545471,142.686981 
	C650.738098,127.307320 648.379333,113.126770 636.956970,101.512596 
	C625.488953,89.851891 604.893372,88.354851 591.445923,97.925331 
	C590.910767,98.306168 590.278931,98.551117 589.346069,98.930374 
	C588.999939,99.001366 588.979187,98.985512 588.979187,98.985512 
	C588.968018,98.794601 588.956787,98.603699 588.932373,98.126556 
	C593.565308,92.843971 599.217834,89.891876 606.113831,89.982399 
	C611.357666,90.051239 616.653870,90.145058 621.825928,90.910034 
	C637.741150,93.263962 647.720947,109.512787 650.080078,122.364182 
	C652.945374,137.972824 650.041931,152.188431 639.802307,164.228897 
	C634.483276,170.483398 626.815247,173.996231 618.739929,175.861023 
	C606.927979,178.588638 596.187317,176.018875 586.171631,168.218628 
	C586.054260,170.534927 585.952209,172.549438 585.840820,174.747925 
	C578.960449,174.747925 572.345215,174.747925 565.361206,174.747925 
	C565.361206,135.643250 565.361206,96.606918 565.361206,56.953362 
	C571.872681,56.953362 578.466309,56.953362 585.519958,57.035103 
z"/>
<path fill="#F8750B" opacity="1.000000" stroke="none" 
	d="
M115.126701,202.588989 
	C109.958618,201.576782 109.467201,196.917816 109.623940,193.034927 
	C109.779465,189.182571 113.358582,187.411987 117.187477,187.107300 
	C119.009201,186.962326 120.847687,187.002335 122.678589,187.002060 
	C163.974686,186.995667 205.270782,187.002762 246.566879,186.988434 
	C256.418121,186.985016 261.761780,182.294250 264.016144,172.675674 
	C270.698151,144.166290 277.602295,115.709015 284.397552,87.226105 
	C286.751190,77.360794 289.139191,67.501472 291.281677,57.589737 
	C291.751251,55.417431 291.241547,53.033447 291.298035,50.112820 
	C291.639557,48.896885 291.865845,48.315079 292.092102,47.733269 
	C295.834503,52.419334 293.927734,57.516739 292.784943,62.319485 
	C284.654449,96.487808 276.334442,130.610992 268.103882,164.755569 
	C267.115295,168.856766 266.627502,173.105011 265.341309,177.102936 
	C262.261871,186.675095 254.509140,189.859909 245.463989,189.903488 
	C207.474487,190.086472 169.483582,189.982590 131.493179,189.967972 
	C127.153259,189.966293 122.742043,189.345276 118.489571,189.928238 
	C111.466980,190.890961 110.287743,193.893143 113.780113,200.157425 
	C114.173012,200.862167 114.632271,201.529922 115.126701,202.588989 
z"/>
<path fill="#FD7306" opacity="1.000000" stroke="none" 
	d="
M288.933472,45.635696 
	C221.921600,45.964188 154.765289,45.971642 87.608994,45.949455 
	C85.966263,45.948914 84.323639,45.619114 82.605316,45.032570 
	C83.415062,44.392506 84.300461,44.162750 85.185852,43.932995 
	C88.967926,43.696083 92.749008,43.277802 96.532257,43.257336 
	C106.613045,43.202812 116.695343,43.267929 126.775955,43.381657 
	C138.404419,43.512840 150.031143,43.832153 161.659698,43.914131 
	C175.201523,44.009602 188.745850,44.051102 202.286621,43.898678 
	C212.311600,43.785831 222.332855,43.079624 232.355438,43.087044 
	C243.039658,43.094955 253.722076,43.772316 264.408081,43.879269 
	C270.021088,43.935444 275.644653,43.141861 281.254272,43.242565 
	C283.777435,43.287861 286.278168,44.582916 288.933472,45.635696 
z"/>
<path fill="#FA7208" opacity="1.000000" stroke="none" 
	d="
M714.802002,172.496826 
	C715.083740,170.567337 715.204895,168.985687 715.371704,166.807480 
	C717.966064,171.369446 727.786133,174.122589 731.366394,171.400177 
	C732.564697,170.488983 732.941101,167.923203 732.950378,166.109924 
	C733.055847,145.484100 733.016663,124.857574 733.019226,104.231239 
	C733.019470,102.567947 732.706421,100.816544 733.115662,99.257416 
	C734.502869,93.971123 732.330139,92.770477 727.333618,92.895630 
	C715.974792,93.180168 716.110168,92.958862 715.947205,104.042847 
	C715.742126,117.989243 715.853088,131.978027 714.738831,145.861130 
	C713.878723,156.577423 698.006958,163.497330 688.941040,157.812286 
	C688.171753,157.329926 687.744751,156.301773 687.090820,155.162689 
	C691.953308,158.258087 697.439270,158.000565 702.763062,156.497253 
	C709.384338,154.627548 713.944885,147.511154 713.981079,139.738831 
	C714.045715,125.869240 714.022888,111.999077 713.989685,98.129257 
	C713.972412,90.911324 713.928711,91.003616 721.189575,90.887245 
	C725.629028,90.816093 730.063049,90.409210 734.753296,90.935669 
	C735.014343,117.043465 735.003296,142.368729 735.061951,167.693832 
	C735.066833,169.822006 735.539368,171.949112 735.794678,174.076721 
	C728.793518,174.333191 721.792358,174.592484 714.789124,174.763474 
	C714.755493,174.764297 714.691345,173.511826 714.802002,172.496826 
z"/>
<path fill="#FA7208" opacity="1.000000" stroke="none" 
	d="
M686.049377,153.647827 
	C684.531311,152.655411 681.969055,151.650909 681.364746,149.950562 
	C680.051025,146.254379 679.193665,142.214340 679.112793,138.295013 
	C678.844666,125.310402 678.846558,112.314133 679.082764,99.328476 
	C679.166748,94.710976 677.965820,92.745750 672.962158,92.905411 
	C659.214294,93.344101 661.120178,91.218666 661.024902,104.889915 
	C660.947083,116.047455 660.597473,127.227875 661.177490,138.355972 
	C661.527588,145.072678 662.762085,151.918274 664.792236,158.328079 
	C667.323608,166.320145 673.548889,171.268326 681.746460,172.957962 
	C692.318970,175.137100 702.665894,175.220795 711.160095,166.845184 
	C711.417542,166.591339 712.085876,166.754272 712.812134,166.875183 
	C710.327759,172.296906 705.348328,173.790985 700.113220,175.519272 
	C692.524414,178.024597 685.425720,176.494370 678.203430,174.568207 
	C667.208435,171.635818 660.698120,159.602463 659.997437,149.036423 
	C659.993835,129.139984 659.985413,110.131004 659.976990,91.122032 
	C666.763611,91.122032 673.550293,91.122032 681.011536,91.122032 
	C681.011536,97.442841 680.936646,103.689034 681.029053,109.932762 
	C681.168274,119.344414 681.508850,128.753525 681.598389,138.165298 
	C681.650513,143.650192 681.684753,149.052444 686.049377,153.647827 
z"/>
<path fill="#F8760D" opacity="1.000000" stroke="none" 
	d="
M140.376984,250.808868 
	C142.895950,261.338501 136.857773,269.661163 129.473495,273.640442 
	C120.841988,278.291809 108.768349,276.269470 102.588524,268.838898 
	C97.361000,262.553345 95.364403,255.218643 98.922272,247.052750 
	C102.562340,238.698227 108.567177,233.971771 117.795120,233.950745 
	C130.570328,233.921646 138.893646,240.170380 140.376984,250.808868 
M131.793488,269.427429 
	C137.937485,264.277252 139.305084,257.485168 137.712189,250.132767 
	C135.428543,239.592102 125.355103,234.460480 114.713295,236.147415 
	C108.181442,237.182861 102.290123,242.321198 100.863129,248.800705 
	C99.190292,256.396454 99.158699,263.806763 106.364380,268.920563 
	C114.344063,274.583649 122.720673,274.428497 131.793488,269.427429 
z"/>
<path fill="#F8770C" opacity="1.000000" stroke="none" 
	d="
M219.203674,273.983337 
	C210.241547,270.568298 206.342697,263.475464 206.241791,255.104156 
	C206.137634,246.463165 210.494385,239.342728 218.774857,235.619308 
	C232.309265,229.533417 248.101151,237.914734 249.276581,253.470901 
	C250.382126,268.101959 232.715927,281.227386 219.203674,273.983337 
M244.203445,244.481079 
	C239.952057,238.327835 234.023621,235.537979 226.639160,236.089706 
	C216.371567,236.856842 209.102219,244.202316 208.991241,253.671936 
	C208.869629,264.051117 214.923264,271.822418 224.049438,272.878448 
	C231.588104,273.750824 238.565994,272.395813 243.240891,265.907776 
	C247.899719,259.442078 248.357666,252.337112 244.203445,244.481079 
z"/>
<path fill="#FD7709" opacity="1.000000" stroke="none" 
	d="
M84.993080,43.602928 
	C84.300461,44.162750 83.415062,44.392506 82.246956,44.823265 
	C80.641235,42.832760 78.782745,40.794945 78.100899,38.419399 
	C76.409798,32.527580 75.406029,26.442127 73.847206,20.507729 
	C72.056534,13.690618 68.700150,11.084660 61.699978,11.037790 
	C47.587856,10.943303 33.468433,10.777923 19.366734,11.170420 
	C16.164604,11.259545 13.022444,13.503287 9.515481,14.811260 
	C10.487497,10.298926 13.950238,9.001800 18.204735,8.987735 
	C24.366377,8.967363 30.528206,9.011240 36.689919,9.002205 
	C45.188686,8.989744 53.714714,9.366856 62.178265,8.807869 
	C70.181877,8.279259 73.936737,13.183693 75.706573,18.613335 
	C77.654449,24.589186 78.537262,30.905815 80.046570,37.033962 
	C80.707024,39.715557 80.635155,43.171272 84.993080,43.602928 
z"/>
<path fill="#FE9228" opacity="1.000000" stroke="none" 
	d="
M735.876099,173.605301 
	C735.539368,171.949112 735.066833,169.822006 735.061951,167.693832 
	C735.003296,142.368729 735.014343,117.043465 734.991943,91.227173 
	C735.317383,92.095543 735.952637,93.454468 735.955017,94.814491 
	C736.000244,120.920883 735.971191,147.027390 735.876099,173.605301 
z"/>
<path fill="#FC7F12" opacity="1.000000" stroke="none" 
	d="
M659.602173,91.068069 
	C659.985413,110.131004 659.993835,129.139984 659.994019,148.624878 
	C659.664856,148.573181 659.063354,148.045242 659.063904,147.517944 
	C659.083435,128.683273 659.159363,109.848701 659.602173,91.068069 
z"/>
<path fill="#D68D37" opacity="1.000000" stroke="none" 
	d="
M124.574493,225.880005 
	C124.736313,225.585785 125.352943,225.144333 125.967880,225.146698 
	C144.773697,225.218719 163.579346,225.334305 182.761108,225.641037 
	C163.767639,225.872513 144.398071,225.906097 124.574493,225.880005 
z"/>
<path fill="#FE9228" opacity="1.000000" stroke="none" 
	d="
M392.867798,173.605896 
	C392.528687,172.286911 392.064667,170.498276 392.059509,168.708344 
	C392.012634,152.436325 392.045746,136.164108 392.078674,119.423248 
	C392.401642,120.307701 392.958374,121.660149 392.962006,123.014076 
	C393.006775,139.721146 392.970856,156.428436 392.867798,173.605896 
z"/>
<path fill="#FE9228" opacity="1.000000" stroke="none" 
	d="
M339.892578,172.614471 
	C339.549286,171.796173 339.056946,170.504608 339.064880,169.216141 
	C339.157928,154.070404 339.325958,138.925125 339.656158,123.416542 
	C339.884033,139.416443 339.929993,155.779541 339.892578,172.614471 
z"/>
<path fill="#FE9228" opacity="1.000000" stroke="none" 
	d="
M317.071045,138.450867 
	C317.430145,143.015335 317.899963,148.043777 317.954895,153.076736 
	C318.017426,158.802567 317.709412,164.532425 317.362579,170.620209 
	C317.107971,160.292175 317.053253,149.604492 317.071045,138.450867 
z"/>
<path fill="#F9730A" opacity="1.000000" stroke="none" 
	d="
M784.088867,143.450226 
	C783.107849,142.785187 781.584595,141.915329 781.157471,140.669632 
	C780.168640,137.785782 779.710449,134.720016 779.063843,131.300720 
	C780.741882,134.940491 782.393188,139.007584 784.088867,143.450226 
z"/>
<path fill="#FE9228" opacity="1.000000" stroke="none" 
	d="
M756.540283,189.046432 
	C751.722473,189.471527 750.355957,192.499527 750.911011,197.336456 
	C751.280151,200.553970 750.969849,203.849426 750.954956,207.579681 
	C750.493774,201.893417 750.041382,195.737457 749.543945,188.969101 
	C752.244690,188.969101 754.169678,188.969101 756.540283,189.046432 
z"/>
<path fill="#FD851C" opacity="1.000000" stroke="none" 
	d="
M339.939880,96.630333 
	C339.590149,95.245438 339.300446,93.446136 339.015503,91.238815 
	C339.346832,92.625839 339.673401,94.420883 339.939880,96.630333 
z"/>
<path fill="#FD7306" opacity="1.000000" stroke="none" 
	d="
M291.939362,47.475700 
	C291.865845,48.315079 291.639557,48.896885 291.221313,49.725460 
	C290.766479,49.147022 290.503632,48.321815 290.137756,47.186768 
	C290.618683,46.990658 291.202667,47.104397 291.939362,47.475700 
z"/>
<path fill="#FD7306" opacity="1.000000" stroke="none" 
	d="
M290.027954,46.721169 
	C289.831329,46.773121 289.566772,46.551506 289.151031,46.118019 
	C289.319885,46.086632 289.639954,46.267117 290.027954,46.721169 
z"/>
<path fill="#F87209" opacity="1.000000" stroke="none" 
	d="
M161.991653,96.010117 
	C158.983994,90.426315 156.065964,85.211426 153.322464,79.906288 
	C151.348175,76.088547 150.858688,72.117493 154.388947,68.939766 
	C157.863113,65.812546 161.694000,65.520943 165.783081,68.288879 
	C181.469193,78.906929 197.205948,89.450768 212.975861,99.944084 
	C217.679550,103.073921 222.472107,106.089111 227.366577,108.909279 
	C236.673157,114.271667 237.202103,123.504166 228.203308,129.474228 
	C214.337860,138.672958 200.305679,147.619919 186.385422,156.736588 
	C180.547394,160.560059 174.801666,164.525253 169.038330,168.461670 
	C164.644226,171.462875 159.506500,171.374435 155.615845,168.160126 
	C152.800079,165.833847 152.230164,159.856384 154.565628,155.692734 
	C158.465439,148.740173 162.468002,141.845291 166.389038,134.904510 
	C166.855789,134.078293 167.083374,133.116989 167.690384,131.505188 
	C165.542770,131.305313 163.825256,131.014038 162.106583,131.007034 
	C151.610641,130.964310 141.111893,131.117752 130.619720,130.914185 
	C127.005066,130.844040 123.322319,130.260025 119.818871,129.343979 
	C113.129616,127.594978 111.208511,124.176308 112.051682,116.599075 
	C112.622581,111.468559 116.459419,108.130028 122.612175,108.059547 
	C135.772247,107.908798 148.935150,108.006203 162.096893,108.002144 
	C163.879379,108.001595 165.661865,108.002068 168.389694,108.002068 
	C166.023819,103.576111 164.089920,99.958244 161.991653,96.010117 
M171.614288,127.999969 
	C171.285736,129.624420 171.337067,131.461700 170.565948,132.838226 
	C166.106430,140.798721 161.601517,148.742477 156.801254,156.499619 
	C154.457748,160.286682 153.838303,164.436478 157.566833,166.452438 
	C160.252029,167.904312 164.848434,167.331863 167.970184,166.093719 
	C172.120499,164.447617 175.672226,161.285736 179.469925,158.758286 
	C195.618561,148.011047 211.830597,137.357010 227.875259,126.456665 
	C234.145340,122.196922 233.643921,116.399132 227.091553,112.012291 
	C213.344849,102.808800 199.640610,93.541611 185.865799,84.380440 
	C178.440308,79.441986 171.056229,74.401329 163.307495,70.018433 
	C161.491714,68.991371 157.780762,69.717865 155.878952,71.013412 
	C154.654922,71.847252 154.310730,75.515121 155.022873,77.349609 
	C156.902664,82.191887 159.448883,86.795570 161.962418,91.366318 
	C164.718323,96.377831 167.811539,101.203659 170.577530,106.209984 
	C171.190903,107.320160 171.049637,108.847275 171.255844,110.182411 
	C170.259048,110.140106 169.261993,110.103401 168.265564,110.053513 
	C167.601990,110.020302 166.933212,109.887001 166.277206,109.936607 
	C151.189697,111.077370 136.059738,108.274048 120.869209,111.489792 
	C115.209549,112.687912 114.589684,115.377487 114.084557,119.209488 
	C113.216125,125.797569 118.473671,126.700508 123.745369,128.491241 
	C138.870026,128.608032 153.994629,128.733490 169.119492,128.810547 
	C169.734329,128.813690 170.351486,128.360794 171.614288,127.999969 
z"/>
<path fill="#F9760A" opacity="1.000000" stroke="none" 
	d="
M618.594360,109.266998 
	C633.249573,118.080566 636.090271,145.730286 618.426819,155.953049 
	C610.603699,160.480667 598.203003,159.954132 591.064636,154.333832 
	C587.089539,151.204102 584.577576,147.384598 584.937073,141.938065 
	C585.243591,137.293976 585.478394,132.552521 584.903687,127.959412 
	C582.770325,110.909096 600.950195,103.421242 612.314697,106.642029 
	C614.364868,107.223061 616.285645,108.260597 618.594360,109.266998 
M588.256348,148.707504 
	C598.442505,161.184998 614.939697,158.145615 622.080750,150.036209 
	C629.513672,141.595383 630.074646,131.136307 625.890564,121.044800 
	C621.935364,111.505051 613.949524,108.051254 603.683411,108.869385 
	C596.643860,109.430382 589.181152,113.312057 588.328613,120.057976 
	C587.171265,129.215469 588.039246,138.628922 588.256348,148.707504 
z"/>
<path fill="#F97409" opacity="1.000000" stroke="none" 
	d="
M589.007874,99.011940 
	C589.015808,99.022514 588.868713,99.055298 588.923950,99.020401 
	C588.979187,98.985512 588.999939,99.001366 589.007874,99.011940 
z"/>
<path fill="#FD851C" opacity="1.000000" stroke="none" 
	d="
M383.747437,100.307037 
	C388.330963,106.208977 390.144196,112.548767 390.061707,119.680977 
	C389.884430,135.011642 389.872559,150.347977 390.104126,165.677292 
	C390.174408,170.330566 388.909210,172.239059 383.949310,172.102112 
	C371.458099,171.757202 373.088654,173.226486 373.019501,161.077240 
	C372.948334,148.578110 373.038483,136.078125 372.987701,123.578789 
	C372.945679,113.225197 365.697662,105.691307 355.792969,106.312637 
	C347.038971,106.861778 337.391266,112.903999 337.849548,123.883942 
	C338.439819,138.025330 337.850372,152.212296 338.067322,166.375061 
	C338.135284,170.813019 336.549805,172.181198 332.243408,172.074539 
	C318.003754,171.721848 320.079590,173.743042 320.008484,159.874557 
	C319.905151,139.709198 320.138153,119.540955 319.881744,99.378349 
	C319.816376,94.237473 321.535400,92.383171 326.508118,92.959076 
	C328.810883,93.225769 331.276031,92.592178 333.468079,93.150230 
	C335.150391,93.578514 337.351990,94.941048 337.866302,96.401077 
	C339.180023,100.130692 341.203796,99.864952 343.469513,97.932755 
	C349.611206,92.695168 356.770569,91.857727 364.498932,91.852409 
	C372.216400,91.847099 378.460388,94.311493 383.747437,100.307037 
z"/>
<path fill="#FD841B" opacity="1.000000" stroke="none" 
	d="
M468.061401,100.919373 
	C468.525696,102.276009 468.666290,103.881172 469.460419,105.037460 
	C474.910126,112.972176 476.122070,121.875145 476.087311,131.215775 
	C476.071167,135.548676 474.411224,137.104523 470.142548,137.059326 
	C455.981384,136.909439 441.817596,136.983475 427.654907,137.012466 
	C420.905853,137.026276 419.390411,139.578125 422.388580,145.726089 
	C427.144745,155.478973 438.696136,161.510361 449.388245,159.596786 
	C454.446594,158.691483 459.495361,157.588867 464.419891,156.138931 
	C466.950928,155.393723 467.891510,156.012695 468.982910,158.234436 
	C473.652649,167.740646 471.531860,168.918625 459.449707,172.311905 
	C449.381348,175.139633 438.789703,175.205673 428.429474,171.825699 
	C417.288269,168.190948 409.933472,160.706177 406.102417,150.004089 
	C400.396973,134.065826 400.879456,118.414299 411.754272,104.641037 
	C418.049530,96.667908 426.658539,92.267281 437.252106,91.896347 
	C447.561432,91.535362 457.219086,92.522415 465.054260,100.174339 
	C465.574860,100.682747 466.596008,100.678650 467.753052,100.915253 
	C468.121765,100.917580 468.040161,100.960197 468.061401,100.919373 
M432.563568,123.939804 
	C440.970306,123.939804 449.377045,123.939804 457.861420,123.939804 
	C456.103790,112.274429 450.162598,106.805000 439.916992,106.914284 
	C431.015961,107.009224 424.482513,113.492424 423.204681,123.943527 
	C426.035278,123.943527 428.811401,123.943527 432.563568,123.939804 
M430.746521,124.981934 
	C428.800171,124.981934 426.853851,124.981934 424.907501,124.981934 
	C424.910858,125.216171 424.914215,125.450409 424.917572,125.684647 
	C435.597595,125.684647 446.277618,125.684647 456.957611,125.684647 
	C456.957977,125.449707 456.958344,125.214767 456.958710,124.979828 
	C448.531891,124.979828 440.105042,124.979828 430.746521,124.981934 
z"/>
<path fill="#FD861C" opacity="1.000000" stroke="none" 
	d="
M131.482025,269.630554 
	C122.720673,274.428497 114.344063,274.583649 106.364380,268.920563 
	C99.158699,263.806763 99.190292,256.396454 100.863129,248.800705 
	C102.290123,242.321198 108.181442,237.182861 114.713295,236.147415 
	C125.355103,234.460480 135.428543,239.592102 137.712189,250.132767 
	C139.305084,257.485168 137.937485,264.277252 131.482025,269.630554 
z"/>
<path fill="#FD861C" opacity="1.000000" stroke="none" 
	d="
M244.379517,244.814636 
	C248.357666,252.337112 247.899719,259.442078 243.240891,265.907776 
	C238.565994,272.395813 231.588104,273.750824 224.049438,272.878448 
	C214.923264,271.822418 208.869629,264.051117 208.991241,253.671936 
	C209.102219,244.202316 216.371567,236.856842 226.639160,236.089706 
	C234.023621,235.537979 239.952057,238.327835 244.379517,244.814636 
z"/>
<path fill="#010000" opacity="1.000000" stroke="none" 
	d="
M123.021523,128.106812 
	C118.473671,126.700508 113.216125,125.797569 114.084557,119.209488 
	C114.589684,115.377487 115.209549,112.687912 120.869209,111.489792 
	C136.059738,108.274048 151.189697,111.077370 166.277206,109.936607 
	C166.933212,109.887001 167.601990,110.020302 168.265564,110.053513 
	C169.261993,110.103401 170.259048,110.140106 171.255844,110.182411 
	C171.049637,108.847275 171.190903,107.320160 170.577530,106.209984 
	C167.811539,101.203659 164.718323,96.377831 161.962418,91.366318 
	C159.448883,86.795570 156.902664,82.191887 155.022873,77.349609 
	C154.310730,75.515121 154.654922,71.847252 155.878952,71.013412 
	C157.780762,69.717865 161.491714,68.991371 163.307495,70.018433 
	C171.056229,74.401329 178.440308,79.441986 185.865799,84.380440 
	C199.640610,93.541611 213.344849,102.808800 227.091553,112.012291 
	C233.643921,116.399132 234.145340,122.196922 227.875259,126.456665 
	C211.830597,137.357010 195.618561,148.011047 179.469925,158.758286 
	C175.672226,161.285736 172.120499,164.447617 167.970184,166.093719 
	C164.848434,167.331863 160.252029,167.904312 157.566833,166.452438 
	C153.838303,164.436478 154.457748,160.286682 156.801254,156.499619 
	C161.601517,148.742477 166.106430,140.798721 170.565948,132.838226 
	C171.337067,131.461700 171.285736,129.624420 170.830185,127.984390 
	C154.371231,128.014816 138.696381,128.060806 123.021523,128.106812 
z"/>
<path fill="#FE8C1A" opacity="1.000000" stroke="none" 
	d="
M123.383446,128.299026 
	C138.696381,128.060806 154.371231,128.014816 170.506821,128.044601 
	C170.351486,128.360794 169.734329,128.813690 169.119492,128.810547 
	C153.994629,128.733490 138.870026,128.608032 123.383446,128.299026 
z"/>
<path fill="#000000" opacity="1.000000" stroke="none" 
	d="
M588.147461,148.320038 
	C588.039246,138.628922 587.171265,129.215469 588.328613,120.057976 
	C589.181152,113.312057 596.643860,109.430382 603.683411,108.869385 
	C613.949524,108.051254 621.935364,111.505051 625.890564,121.044800 
	C630.074646,131.136307 629.513672,141.595383 622.080750,150.036209 
	C614.939697,158.145615 598.442505,161.184998 588.147461,148.320038 
z"/>
<path fill="#020200" opacity="1.000000" stroke="none" 
	d="
M432.075562,123.941666 
	C428.811401,123.943527 426.035278,123.943527 423.204681,123.943527 
	C424.482513,113.492424 431.015961,107.009224 439.916992,106.914284 
	C450.162598,106.805000 456.103790,112.274429 457.861420,123.939804 
	C449.377045,123.939804 440.970306,123.939804 432.075562,123.941666 
z"/>
<path fill="#FD7306" opacity="1.000000" stroke="none" 
	d="
M431.212372,124.980881 
	C440.105042,124.979828 448.531891,124.979828 456.958710,124.979828 
	C456.958344,125.214767 456.957977,125.449707 456.957611,125.684647 
	C446.277618,125.684647 435.597595,125.684647 424.917572,125.684647 
	C424.914215,125.450409 424.910858,125.216171 424.907501,124.981934 
	C426.853851,124.981934 428.800171,124.981934 431.212372,124.980881 
z"/>
</svg>